<svg width="48" height="48" viewBox="0 0 48 48" fill="none" xmlns="http://www.w3.org/2000/svg">
<path opacity="0.14" d="M21.6101 34.8389L22.511 34.1012L23.477 33.3101L24.4989 32.4733L25.5676 31.5982L26.6737 30.6924L27.8082 29.7634L28.9618 28.8187L30.1253 27.8659L31.2896 26.9125L32.4454 25.966L33.5836 25.034L34.6949 24.124L35.7701 23.2435L36.8001 22.4001L37.7756 21.6012L38.6876 20.8545L39.5266 20.1673L40.2837 19.5474L40.9495 19.0022L41.5149 18.5392L41.9708 18.1659L42.3077 17.89L42.5167 17.7188L42.5885 17.6601C42.5885 17.6601 44.0474 16.0761 42.7925 14.2176C42.5976 13.9343 42.3626 13.6807 42.095 13.4648C41.8399 13.2548 41.551 13.0896 41.2407 12.9759C40.9762 12.8813 40.6989 12.8271 40.4182 12.8152C40.1755 12.8052 39.9325 12.8232 39.6939 12.8687C39.4555 12.9089 39.2227 12.9775 39.0006 13.073C38.8077 13.1673 38.6276 13.2859 38.4647 13.4259L38.2952 13.5642L38.0894 13.7322L37.8488 13.9286L37.5751 14.152L37.2701 14.4009L36.9354 14.6741L36.5727 14.9702L36.1837 15.2877L35.77 15.6254L35.3333 15.9818L34.8754 16.3556L34.3979 16.7454L33.9024 17.1498L33.3907 17.5674L32.8644 17.997L32.3253 18.4371L31.7749 18.8863L31.215 19.3433L30.6473 19.8067L30.0734 20.2752L29.495 20.7473L28.9138 21.2217L28.3315 21.697L27.7497 22.1718L27.1702 22.6449L26.5946 23.1147L26.0246 23.58L25.4618 24.0393L24.908 24.4913L24.3649 24.9346L23.8341 25.3679L23.3173 25.7898L22.8161 26.1989L22.3323 26.5938L21.8675 26.9731L21.4234 27.3356L21.0018 27.6797L20.6042 28.0042L20.2324 28.3077L19.888 28.5888L19.5727 28.8462L19.2882 29.0784L19.0363 29.2841L18.8184 29.4619L18.6364 29.6104L18.4919 29.7284L18.3866 29.8143L18.3222 29.8669L18.3004 29.8847C18.3004 29.8847 17.2961 30.5407 16.1213 30.3857C14.9466 30.2308 14.3191 29.3015 14.3191 29.3015L9.71182 23.4964C9.71182 23.4964 8.06731 21.9232 6.03386 23.1243C4.57232 23.9876 4.67461 25.4192 4.84775 26.1561C4.91221 26.4265 5.03448 26.6796 5.20615 26.8982L5.25607 26.9622L5.59764 27.4L6.20951 28.1842L7.02878 29.2342L7.99254 30.4693L9.03789 31.8091L10.1019 33.1728L11.1217 34.4797L12.0343 35.6494L12.7769 36.6011C12.8729 36.7241 12.9688 36.847 13.0648 36.97C13.3163 37.2942 13.5417 37.6464 13.8309 37.9392C14.3118 38.4224 14.9557 38.7086 15.6366 38.7419C16.1236 38.7673 16.6239 38.7043 17.0693 38.4973C17.107 38.4665 17.1678 38.4487 17.2108 38.4245C17.26 38.3968 17.3082 38.3672 17.3554 38.3361C17.4445 38.2774 17.5312 38.2138 17.6144 38.1472L21.6101 34.8389Z" fill="#CECECE"/>
<path opacity="0.14" d="M22.2396 35.2185L23.1901 34.5457L24.2092 33.8244L25.2873 33.0612L26.4146 32.2633L27.5816 31.4372L28.7784 30.5901L29.9955 29.7286L31.2229 28.8598L32.4512 27.9904L33.6705 27.1273L34.8712 26.2774L36.0436 25.4475L37.178 24.6446L38.2646 23.8755L39.2937 23.147L40.2558 22.466L41.141 21.8394L41.9396 21.2741L42.642 20.7769L43.2386 20.3547L43.7194 20.0143L44.0749 19.7627L44.2953 19.6067L44.3711 19.5531C44.3711 19.5531 45.9375 18.0753 44.816 16.1334C44.6414 15.8371 44.4249 15.5677 44.173 15.3335C43.9332 15.1062 43.6567 14.9211 43.3552 14.786C43.0979 14.673 42.8251 14.5995 42.5459 14.5679C42.3045 14.541 42.0609 14.5418 41.8197 14.5706C41.579 14.5939 41.342 14.646 41.1137 14.7257C40.9146 14.8063 40.7267 14.9119 40.5544 15.0401L40.3756 15.1662L40.1585 15.3194L39.9047 15.4984L39.6161 15.7021L39.2944 15.929L38.9413 16.1781L38.5587 16.448L38.1484 16.7374L37.7121 17.0453L37.2515 17.3702L36.7685 17.7109L36.2648 18.0662L35.7422 18.4349L35.2024 18.8157L34.6473 19.2073L34.0787 19.6085L33.4981 20.018L32.9076 20.4346L32.3087 20.857L31.7034 21.2841L31.0933 21.7145L30.4803 22.1469L29.8661 22.5802L29.2525 23.0131L28.6412 23.4444L28.034 23.8727L27.4328 24.2968L26.8392 24.7155L26.2551 25.1276L25.6822 25.5317L25.1223 25.9267L24.5772 26.3113L24.0486 26.6842L23.5383 27.0442L23.048 27.39L22.5797 27.7205L22.1349 28.0342L21.7155 28.3301L21.3233 28.6067L20.9601 28.863L20.6276 29.0976L20.3275 29.3093L20.0617 29.4968L19.8319 29.6589L19.64 29.7943L19.4876 29.9018L19.3765 29.9801L19.3085 30.0281L19.2855 30.0444C19.2855 30.0444 18.2377 30.6283 17.0767 30.3913C15.9157 30.1544 15.3549 29.1834 15.3549 29.1834L11.1661 23.0695C11.1661 23.0695 9.63593 21.3848 7.52326 22.4404C6.00478 23.1991 6.00642 24.6343 6.12748 25.3815C6.17282 25.6557 6.27703 25.9169 6.43294 26.147L6.47825 26.2143L6.78828 26.6749L7.34366 27.5001L8.08728 28.605L8.96205 29.9047L9.91086 31.3144L10.8766 32.7494L11.8022 34.1246L12.6306 35.3554L13.3046 36.3569C13.3917 36.4863 13.4788 36.6157 13.5659 36.7451C13.7941 37.0861 13.9943 37.4533 14.2622 37.7656C14.708 38.2813 15.3303 38.612 16.0072 38.6929C16.4912 38.7524 16.9947 38.7246 17.4535 38.5494C17.4932 38.5213 17.5551 38.5078 17.5997 38.4867C17.6508 38.4625 17.7009 38.4363 17.7502 38.4086C17.8431 38.3564 17.9341 38.2991 18.0217 38.2384L22.2396 35.2185Z" fill="#D0D0D0"/>
<path d="M22.5309 34.243L23.353 33.4184L24.2345 32.5341L25.167 31.5986L26.1421 30.6204L27.1514 29.6078L28.1866 28.5693L29.2393 27.5133L30.301 26.4483L31.3634 25.3825L32.418 24.3245L33.4566 23.2826L34.4706 22.2654L35.4517 21.2811L36.3916 20.3383L37.2818 19.4453L38.1139 18.6105L38.8796 17.8424L39.5704 17.1494L40.1779 16.5399L40.6939 16.0223L41.1098 15.6051L41.4172 15.2967L41.6079 15.1054L41.6734 15.0397C41.6734 15.0397 42.9655 13.3169 41.5299 11.5942C41.3074 11.3319 41.0482 11.1033 40.7601 10.9154C40.4852 10.7322 40.1812 10.5968 39.861 10.515C39.5883 10.4475 39.307 10.4215 39.0265 10.4379C38.784 10.4524 38.5441 10.4947 38.3113 10.5641C38.0781 10.628 37.8534 10.7197 37.642 10.8371C37.4596 10.9503 37.2923 11.0864 37.1444 11.2421L36.9897 11.3968L36.8018 11.5847L36.5822 11.8043L36.3324 12.0541L36.054 12.3325L35.7485 12.638L35.4174 12.969L35.0623 13.3241L34.6848 13.7017L34.2862 14.1002L33.8682 14.5182L33.4324 14.9541L32.9801 15.4063L32.5131 15.8734L32.0327 16.3538L31.5406 16.8459L31.0382 17.3482L30.5272 17.8593L30.009 18.3775L29.4851 18.9013L28.9572 19.4292L28.4268 19.9597L27.8952 20.4912L27.3642 21.0222L26.8353 21.5512L26.3099 22.0766L25.7896 22.5969L25.2759 23.1105L24.7705 23.616L24.2747 24.1117L23.7902 24.5963L23.3184 25.068L22.861 25.5254L22.4194 25.967L21.9952 26.3913L21.5899 26.7966L21.205 27.1814L20.8421 27.5443L20.5027 27.8837L20.1884 28.1981L19.9006 28.4858L19.641 28.7455L19.411 28.9755L19.2121 29.1743L19.046 29.3404L18.9141 29.4723L18.818 29.5684L18.7592 29.6272L18.7393 29.6472C18.7393 29.6472 17.8061 30.4009 16.6217 30.365C15.4374 30.3291 14.7195 29.4677 14.7195 29.4677L9.55129 24.1559C9.55129 24.1559 7.75676 22.7562 5.85455 24.1559C4.48734 25.162 4.73321 26.5759 4.97966 27.2917C5.07102 27.5542 5.21816 27.7938 5.41096 27.994L5.46707 28.0526L5.85097 28.4538L6.53865 29.1724L7.45946 30.1346L8.54266 31.2665L9.71756 32.4942L10.9134 33.7438L12.0596 34.9415L13.0854 36.0133L13.92 36.8854C14.0278 36.9981 14.1357 37.1108 14.2435 37.2235C14.5264 37.5207 14.7861 37.8485 15.1033 38.1107C15.6304 38.543 16.2999 38.763 16.9807 38.7275C17.4677 38.7037 17.9592 38.5907 18.3814 38.3399C18.4158 38.3055 18.4745 38.2817 18.5149 38.2533C18.5611 38.2207 18.606 38.1864 18.6499 38.1507C18.7326 38.0834 18.8125 38.0114 18.8885 37.9367L22.5309 34.243Z" fill="#121212"/>
<mask id="mask0_1191_8061" style="mask-type:alpha" maskUnits="userSpaceOnUse" x="4" y="10" width="39" height="29">
<path d="M22.5309 34.243L23.353 33.4184L24.2345 32.5341L25.167 31.5986L26.1421 30.6204L27.1514 29.6078L28.1866 28.5693L29.2393 27.5133L30.301 26.4483L31.3634 25.3825L32.418 24.3245L33.4566 23.2826L34.4706 22.2654L35.4517 21.2811L36.3916 20.3383L37.2818 19.4453L38.1139 18.6105L38.8796 17.8424L39.5704 17.1494L40.1779 16.5399L40.6939 16.0223L41.1098 15.6051L41.4172 15.2967L41.6079 15.1054L41.6734 15.0397C41.6734 15.0397 42.9655 13.3169 41.5299 11.5942C41.3074 11.3319 41.0482 11.1033 40.7601 10.9154C40.4852 10.7322 40.1812 10.5968 39.861 10.515C39.5883 10.4475 39.307 10.4215 39.0265 10.4379C38.784 10.4524 38.5441 10.4947 38.3113 10.5641C38.0781 10.628 37.8534 10.7197 37.642 10.8371C37.4596 10.9503 37.2923 11.0864 37.1444 11.2421L36.9897 11.3968L36.8018 11.5847L36.5822 11.8043L36.3324 12.0541L36.054 12.3325L35.7485 12.638L35.4174 12.969L35.0623 13.3241L34.6848 13.7017L34.2862 14.1002L33.8682 14.5182L33.4324 14.9541L32.9801 15.4063L32.5131 15.8734L32.0327 16.3538L31.5406 16.8459L31.0382 17.3482L30.5272 17.8593L30.009 18.3775L29.4851 18.9013L28.9572 19.4292L28.4268 19.9597L27.8952 20.4912L27.3642 21.0222L26.8353 21.5512L26.3099 22.0766L25.7896 22.5969L25.2759 23.1105L24.7705 23.616L24.2747 24.1117L23.7902 24.5963L23.3184 25.068L22.861 25.5254L22.4194 25.967L21.9952 26.3913L21.5899 26.7966L21.205 27.1814L20.8421 27.5443L20.5027 27.8837L20.1884 28.1981L19.9006 28.4858L19.641 28.7455L19.411 28.9755L19.2121 29.1743L19.046 29.3404L18.9141 29.4723L18.818 29.5684L18.7592 29.6272L18.7393 29.6472C18.7393 29.6472 17.8061 30.4009 16.6217 30.365C15.4374 30.3291 14.7195 29.4677 14.7195 29.4677L9.55129 24.1559C9.55129 24.1559 7.75676 22.7562 5.85455 24.1559C4.48734 25.162 4.73321 26.5759 4.97966 27.2917C5.07102 27.5542 5.21816 27.7938 5.41096 27.994L5.46707 28.0526L5.85097 28.4538L6.53865 29.1724L7.45946 30.1346L8.54266 31.2665L9.71756 32.4942L10.9134 33.7438L12.0596 34.9415L13.0854 36.0133L13.92 36.8854C14.0278 36.9981 14.1357 37.1108 14.2435 37.2235C14.5264 37.5207 14.7861 37.8485 15.1033 38.1107C15.6304 38.543 16.2999 38.763 16.9807 38.7275C17.4677 38.7037 17.9592 38.5907 18.3814 38.3399C18.4158 38.3055 18.4745 38.2817 18.5149 38.2533C18.5611 38.2207 18.606 38.1864 18.6499 38.1507C18.7326 38.0834 18.8125 38.0114 18.8885 37.9367L22.5309 34.243Z" fill="white"/>
</mask>
<g mask="url(#mask0_1191_8061)">
<rect x="4.67957" y="-0.046875" width="6.2689" height="55.056" fill="#5EBD3E"/>
<rect x="10.9485" y="-0.046875" width="6.2689" height="55.056" fill="#FFB900"/>
<rect x="17.2173" y="-0.046875" width="6.2689" height="55.056" fill="#F78200"/>
<rect x="23.4862" y="-0.046875" width="6.2689" height="55.056" fill="#E23838"/>
<rect x="29.7242" y="-0.046875" width="6.2689" height="55.056" fill="#973999"/>
<rect x="35.9623" y="-0.046875" width="6.2689" height="55.056" fill="#009CDF"/>
</g>
</svg>
