<svg width="1536" height="1536" viewBox="0 0 1536 1536" fill="none" xmlns="http://www.w3.org/2000/svg">
<rect width="1536" height="1536" fill="white"/>
<path opacity="0.14" d="M700.427 1129.21L729.628 1105.3L760.938 1079.66L794.061 1052.53L828.698 1024.17L864.551 994.811L901.322 964.7L938.712 934.081L976.425 903.199L1014.16 872.297L1051.62 841.62L1088.51 811.412L1124.53 781.916L1159.38 753.378L1192.77 726.04L1224.39 700.147L1253.94 675.943L1281.14 653.673L1305.68 633.579L1327.26 615.907L1345.59 600.9L1360.36 588.803L1371.28 579.859L1378.05 574.311L1380.38 572.406C1380.38 572.406 1427.67 521.068 1386.99 460.829C1380.68 451.647 1373.06 443.428 1364.39 436.428C1356.12 429.623 1346.76 424.267 1336.7 420.584C1328.12 417.517 1319.14 415.76 1310.04 415.373C1302.17 415.05 1294.3 415.632 1286.56 417.109C1278.83 418.411 1271.29 420.634 1264.09 423.731C1257.84 426.787 1252 430.63 1246.72 435.167L1241.23 439.65L1234.56 445.097L1226.76 451.462L1217.89 458.702L1208 466.771L1197.15 475.626L1185.4 485.222L1172.79 495.514L1159.38 506.458L1145.23 518.01L1130.38 530.125L1114.91 542.759L1098.85 555.867L1082.26 569.404L1065.2 583.328L1047.73 597.591L1029.89 612.152L1011.74 626.964L993.341 641.984L974.74 657.167L955.994 672.469L937.156 687.845L918.282 703.25L899.425 718.642L880.642 733.974L861.985 749.202L843.51 764.283L825.27 779.17L807.32 793.821L789.716 808.191L772.511 822.235L755.76 835.908L739.516 849.167L723.835 861.966L708.771 874.262L694.378 886.009L680.711 897.165L667.825 907.683L655.773 917.52L644.611 926.631L634.392 934.972L625.172 942.498L617.004 949.165L609.943 954.928L604.044 959.743L599.361 963.566L595.949 966.351L593.861 968.055L593.152 968.633C593.152 968.633 560.601 989.894 522.525 984.872C484.448 979.85 464.111 949.731 464.111 949.731L314.78 761.576C314.78 761.576 261.478 710.583 195.569 749.514C148.198 777.496 151.513 823.895 157.125 847.781C159.214 856.544 163.177 864.75 168.741 871.835L170.359 873.908L181.43 888.097L201.262 913.515L227.817 947.548L259.054 987.582L292.936 1031.01L327.423 1075.21L360.477 1117.57L390.057 1155.48L414.126 1186.32C417.235 1190.31 420.345 1194.3 423.455 1198.28C431.607 1208.79 438.915 1220.21 448.286 1229.7C463.873 1245.36 484.745 1254.63 506.815 1255.71C522.599 1256.54 538.815 1254.49 553.25 1247.78C554.472 1246.79 556.443 1246.21 557.836 1245.43C559.433 1244.53 560.994 1243.57 562.524 1242.56C565.41 1240.66 568.222 1238.6 570.917 1236.44L700.427 1129.21Z" fill="#CECECE"/>
<path opacity="0.14" d="M720.833 1141.5L751.639 1119.7L784.671 1096.32L819.614 1071.58L856.155 1045.72L893.978 1018.95L932.77 991.487L972.216 963.566L1012 935.405L1051.81 907.225L1091.33 879.251L1130.25 851.704L1168.25 824.807L1205.02 798.783L1240.24 773.853L1273.59 750.241L1304.77 728.169L1333.47 707.861L1359.35 689.537L1382.12 673.422L1401.45 659.737L1417.04 648.706L1428.56 640.55L1435.71 635.492L1438.16 633.755C1438.16 633.755 1488.93 585.859 1452.58 522.916C1446.92 513.313 1439.9 504.58 1431.74 496.99C1423.97 489.622 1415.01 483.622 1405.23 479.244C1396.89 475.583 1388.05 473.2 1379 472.176C1371.18 471.302 1363.28 471.33 1355.46 472.261C1347.66 473.018 1339.98 474.706 1332.58 477.291C1326.13 479.901 1320.04 483.325 1314.45 487.481L1308.66 491.568L1301.62 496.533L1293.4 502.336L1284.04 508.935L1273.61 516.292L1262.17 524.364L1249.77 533.112L1236.47 542.494L1222.33 552.471L1207.4 563.002L1191.74 574.047L1175.42 585.563L1158.48 597.513L1140.99 609.854L1122.99 622.547L1104.56 635.55L1085.75 648.823L1066.6 662.326L1047.19 676.018L1027.57 689.861L1007.8 703.81L987.931 717.828L968.023 731.872L948.135 745.903L928.321 759.879L908.643 773.762L889.155 787.509L869.916 801.081L850.984 814.437L832.415 827.536L814.268 840.339L796.598 852.804L779.465 864.89L762.925 876.558L747.035 887.768L731.854 898.477L717.439 908.646L703.847 918.235L691.135 927.203L679.361 935.509L668.583 943.112L658.858 949.973L650.243 956.051L642.795 961.305L636.573 965.694L631.633 969.179L628.034 971.718L625.831 973.272L625.084 973.799C625.084 973.799 591.122 992.725 553.491 985.045C515.861 977.366 497.686 945.894 497.686 945.894L361.916 747.73C361.916 747.73 312.321 693.125 243.845 727.338C194.628 751.929 194.681 798.447 198.605 822.667C200.074 831.555 203.452 840.019 208.506 847.477L209.974 849.659L220.023 864.589L238.024 891.335L262.126 927.146L290.479 969.273L321.232 1014.97L352.535 1061.47L382.536 1106.05L409.385 1145.94L431.231 1178.4C434.054 1182.59 436.877 1186.79 439.7 1190.98C447.095 1202.04 453.584 1213.94 462.267 1224.06C476.717 1240.78 496.887 1251.49 518.826 1254.12C534.514 1256.05 550.834 1255.15 565.704 1249.46C566.992 1248.56 568.999 1248.12 570.444 1247.43C572.099 1246.65 573.724 1245.8 575.321 1244.9C578.334 1243.21 581.283 1241.35 584.123 1239.39L720.833 1141.5Z" fill="#D0D0D0"/>
<path d="M730.275 1109.89L756.92 1083.16L785.49 1054.5L815.715 1024.18L847.321 992.471L880.036 959.651L913.589 925.992L947.707 891.765L982.12 857.243L1016.55 822.7L1050.74 788.407L1084.4 754.639L1117.27 721.667L1149.07 689.765L1179.53 659.206L1208.38 630.261L1235.35 603.205L1260.17 578.31L1282.56 555.848L1302.25 536.093L1318.97 519.318L1332.45 505.794L1342.42 495.796L1348.6 489.596L1350.72 487.467C1350.72 487.467 1392.6 431.629 1346.07 375.791C1338.86 367.291 1330.46 359.88 1321.12 353.79C1312.21 347.852 1302.36 343.465 1291.98 340.814C1283.14 338.625 1274.02 337.782 1264.93 338.313C1257.07 338.783 1249.29 340.155 1241.75 342.403C1234.19 344.476 1226.91 347.448 1220.06 351.253C1214.14 354.924 1208.72 359.335 1203.93 364.38L1198.91 369.394L1192.82 375.484L1185.71 382.602L1177.61 390.697L1168.59 399.721L1158.68 409.623L1147.95 420.353L1136.44 431.862L1124.21 444.1L1111.29 457.018L1097.74 470.566L1083.61 484.694L1068.96 499.351L1053.82 514.49L1038.25 530.06L1022.3 546.01L1006.01 562.292L989.451 578.856L972.655 595.652L955.676 612.631L938.565 629.742L921.372 646.936L904.144 664.164L886.933 681.375L869.788 698.52L852.759 715.548L835.895 732.412L819.247 749.06L802.864 765.443L786.796 781.512L771.091 797.216L755.801 812.507L740.974 827.333L726.661 841.646L712.911 855.396L699.774 868.533L687.3 881.007L675.538 892.769L664.538 903.769L654.349 913.958L645.022 923.285L636.606 931.701L629.151 939.156L622.706 945.601L617.322 950.985L613.048 955.26L609.933 958.374L608.027 960.28L607.381 960.926C607.381 960.926 577.135 985.355 538.746 984.192C500.358 983.029 477.092 955.11 477.092 955.11L309.578 782.943C309.578 782.943 251.414 737.574 189.759 782.943C145.445 815.551 153.414 861.381 161.402 884.581C164.363 893.089 169.132 900.855 175.381 907.344L177.2 909.244L189.643 922.246L211.932 945.538L241.777 976.725L276.886 1013.41L314.967 1053.2L353.728 1093.71L390.878 1132.53L424.125 1167.27L451.176 1195.53C454.672 1199.19 458.167 1202.84 461.662 1206.49C470.831 1216.12 479.25 1226.75 489.53 1235.25C506.614 1249.26 528.314 1256.39 550.38 1255.24C566.167 1254.47 582.095 1250.8 595.782 1242.68C596.897 1241.56 598.799 1240.79 600.107 1239.87C601.605 1238.81 603.062 1237.7 604.483 1236.54C607.163 1234.36 609.753 1232.03 612.217 1229.61L730.275 1109.89Z" fill="white"/>
<mask id="mask0" mask-type="alpha" maskUnits="userSpaceOnUse" x="155" y="338" width="1214" height="918">
<path d="M730.275 1109.89L756.92 1083.16L785.49 1054.5L815.715 1024.18L847.321 992.471L880.036 959.651L913.589 925.992L947.707 891.765L982.12 857.243L1016.55 822.7L1050.74 788.407L1084.4 754.639L1117.27 721.667L1149.07 689.765L1179.53 659.206L1208.38 630.261L1235.35 603.205L1260.17 578.31L1282.56 555.848L1302.25 536.093L1318.97 519.318L1332.45 505.794L1342.42 495.796L1348.6 489.596L1350.72 487.467C1350.72 487.467 1392.6 431.629 1346.07 375.791C1338.86 367.291 1330.46 359.88 1321.12 353.79C1312.21 347.852 1302.36 343.465 1291.98 340.814C1283.14 338.625 1274.02 337.782 1264.93 338.313C1257.07 338.783 1249.29 340.155 1241.75 342.403C1234.19 344.476 1226.91 347.448 1220.06 351.253C1214.14 354.924 1208.72 359.335 1203.93 364.38L1198.91 369.394L1192.82 375.484L1185.71 382.602L1177.61 390.697L1168.59 399.721L1158.68 409.623L1147.95 420.353L1136.44 431.862L1124.21 444.1L1111.29 457.018L1097.74 470.566L1083.61 484.694L1068.96 499.351L1053.82 514.49L1038.25 530.06L1022.3 546.01L1006.01 562.292L989.451 578.856L972.655 595.652L955.676 612.631L938.565 629.742L921.372 646.936L904.144 664.164L886.933 681.375L869.788 698.52L852.759 715.548L835.895 732.412L819.247 749.06L802.864 765.443L786.796 781.512L771.091 797.216L755.801 812.507L740.974 827.333L726.661 841.646L712.911 855.396L699.774 868.533L687.3 881.007L675.538 892.769L664.538 903.769L654.349 913.958L645.022 923.285L636.606 931.701L629.151 939.156L622.706 945.601L617.322 950.985L613.048 955.26L609.933 958.374L608.027 960.28L607.381 960.926C607.381 960.926 577.135 985.355 538.746 984.192C500.358 983.029 477.092 955.11 477.092 955.11L309.578 782.943C309.578 782.943 251.414 737.574 189.759 782.943C145.445 815.551 153.414 861.381 161.402 884.581C164.363 893.089 169.132 900.855 175.381 907.344L177.2 909.244L189.643 922.246L211.932 945.538L241.777 976.725L276.886 1013.41L314.967 1053.2L353.728 1093.71L390.878 1132.53L424.125 1167.27L451.176 1195.53C454.672 1199.19 458.167 1202.84 461.662 1206.49C470.831 1216.12 479.25 1226.75 489.53 1235.25C506.614 1249.26 528.314 1256.39 550.38 1255.24C566.167 1254.47 582.095 1250.8 595.782 1242.68C596.897 1241.56 598.799 1240.79 600.107 1239.87C601.605 1238.81 603.062 1237.7 604.483 1236.54C607.163 1234.36 609.753 1232.03 612.217 1229.61L730.275 1109.89Z" fill="white"/>
</mask>
<g mask="url(#mask0)">
<rect x="151.673" y="-1.51758" width="203.188" height="1784.48" fill="#5EBD3E"/>
<rect x="354.861" y="-1.51758" width="203.188" height="1784.48" fill="#FFB900"/>
<rect x="558.05" y="-1.51758" width="203.188" height="1784.48" fill="#F78200"/>
<rect x="761.238" y="-1.51758" width="203.188" height="1784.48" fill="#E23838"/>
<rect x="963.426" y="-1.51758" width="203.188" height="1784.48" fill="#973999"/>
<rect x="1165.61" y="-1.51758" width="203.188" height="1784.48" fill="#009CDF"/>
</g>
</svg>
